<?xml version="1.0" standalone="no"?>
<!DOCTYPE svg PUBLIC "-//W3C//DTD SVG 20010904//EN"
 "http://www.w3.org/TR/2001/REC-SVG-20010904/DTD/svg10.dtd">
<svg version="1.0" xmlns="http://www.w3.org/2000/svg"
 width="420.000000pt" height="420.000000pt" viewBox="0 0 420.000000 420.000000"
 preserveAspectRatio="xMidYMid meet">
<metadata>
Created by potrace 1.11, written by Peter Selinger 2001-2013
</metadata>
<g transform="translate(0.000000,420.000000) scale(0.100000,-0.100000)"
fill="#000000" stroke="none">
<path d="M1448 3930 c-10 -22 -23 -40 -30 -40 -6 0 -8 -3 -5 -6 3 -4 1 -16 -5
-28 -7 -11 -13 -23 -13 -26 -1 -3 -64 -132 -142 -287 -78 -156 -138 -283 -135
-283 4 0 2 -4 -4 -8 -6 -4 -45 -79 -88 -167 -42 -88 -80 -167 -85 -175 -11
-17 -79 -154 -125 -250 -17 -36 -34 -66 -38 -68 -5 -2 -8 -8 -8 -14 0 -14
-113 -242 -122 -246 -5 -2 -8 -8 -8 -13 0 -12 -51 -123 -60 -129 -7 -5 -25
-52 -21 -58 1 -1 -5 -10 -14 -18 -8 -9 -13 -19 -10 -24 3 -5 2 -10 -3 -12 -8
-3 -263 -514 -261 -524 0 -4 -3 -10 -8 -13 -4 -3 -16 -21 -25 -38 -17 -32 -17
-33 13 -53 16 -12 29 -18 29 -15 0 4 11 0 25 -9 13 -9 31 -16 40 -16 8 0 15
-5 15 -11 0 -5 5 -7 10 -4 6 3 10 1 10 -4 0 -6 5 -11 10 -11 6 0 46 -17 88
-37 42 -20 79 -37 82 -38 3 0 31 -13 63 -28 32 -15 60 -27 63 -27 3 0 18 -9
34 -20 15 -11 30 -17 33 -14 3 4 13 -1 22 -10 9 -9 21 -14 26 -11 5 4 9 1 9
-5 0 -6 5 -8 10 -5 6 3 10 1 10 -4 0 -6 3 -10 8 -9 4 1 39 -13 77 -31 39 -18
95 -45 125 -58 76 -35 256 -119 435 -204 50 -23 92 -43 95 -44 3 0 28 -11 55
-24 28 -13 88 -41 133 -62 46 -22 88 -39 93 -39 5 0 9 -4 9 -8 0 -4 20 -14 45
-21 25 -7 45 -17 45 -23 0 -5 4 -6 10 -3 5 3 10 1 10 -4 0 -6 3 -10 8 -9 4 1
38 -13 76 -30 38 -18 73 -32 77 -32 5 0 9 -4 9 -10 0 -5 3 -9 8 -8 4 1 21 -5
37 -12 17 -7 32 -14 35 -15 3 0 34 -15 70 -33 36 -18 70 -32 77 -32 7 0 13 -4
13 -10 0 -5 4 -10 10 -10 5 0 35 -12 67 -27 32 -14 60 -27 63 -28 3 -1 35 -15
71 -32 65 -31 214 -100 274 -128 32 -15 45 -12 45 10 0 8 9 34 20 57 11 24 63
149 115 278 52 129 101 246 107 260 6 14 10 29 9 34 -1 5 2 12 6 15 5 3 26 51
47 106 22 55 43 105 48 111 4 6 9 19 11 30 2 10 11 35 19 54 41 89 108 253
108 265 1 6 7 19 14 30 7 11 19 38 26 60 7 22 16 45 21 51 5 6 6 14 2 17 -3 4
-1 7 5 7 7 0 11 3 10 8 0 4 2 16 7 27 4 11 25 62 47 114 21 51 38 99 38 106 0
7 7 18 15 25 9 7 13 15 11 17 -2 3 5 26 16 51 11 26 40 97 64 157 25 61 49
119 54 130 22 49 52 121 54 130 2 6 8 21 13 35 6 14 32 77 57 140 26 63 51
124 56 135 5 11 19 45 30 75 12 30 27 65 33 78 8 16 7 26 -1 34 -7 7 -12 8
-12 3 0 -4 -8 -1 -17 8 -10 8 -22 16 -28 17 -17 4 -200 81 -330 141 -27 12
-52 23 -55 24 -11 4 -63 26 -108 46 -173 78 -270 119 -281 119 -6 0 -11 5 -11
12 0 6 -3 8 -7 5 -3 -4 -12 -2 -20 4 -7 6 -13 8 -13 4 0 -4 -6 -3 -12 3 -7 5
-87 42 -178 82 -171 74 -179 78 -295 130 -38 18 -74 33 -80 34 -5 2 -32 13
-60 25 -27 12 -63 28 -80 36 -16 7 -52 23 -80 35 -27 12 -86 38 -130 57 -44
19 -91 39 -105 45 -14 6 -28 11 -32 10 -5 -1 -8 2 -8 8 0 6 -3 9 -7 8 -5 -1
-30 8 -58 21 -27 12 -68 30 -90 38 -22 9 -44 20 -50 25 -5 4 -17 8 -27 8 -10
0 -18 4 -18 9 0 5 -10 11 -23 15 -13 3 -50 18 -83 33 -32 14 -61 27 -64 28 -3
0 -27 11 -54 23 -84 38 -89 38 -108 -8z m622 -1414 c39 -19 70 -33 70 -31 0 2
27 -10 60 -26 33 -16 62 -29 65 -29 3 0 39 -16 81 -35 41 -19 77 -35 79 -35 1
0 20 -8 41 -17 22 -9 44 -17 49 -18 9 0 9 -12 3 -62 -1 -7 -5 -13 -9 -13 -4 0
-10 -12 -14 -27 -3 -16 -13 -41 -20 -58 -19 -43 -44 -105 -43 -108 0 -1 -9
-21 -21 -44 -12 -24 -19 -43 -16 -43 3 0 0 -10 -7 -22 -7 -13 -13 -25 -13 -28
-1 -3 -8 -18 -15 -35 -7 -16 -14 -32 -15 -35 0 -3 -6 -14 -12 -25 -6 -11 -13
-29 -14 -40 -6 -31 -27 -49 -43 -36 -7 6 -16 8 -19 4 -4 -3 -7 -1 -7 5 0 7 -9
12 -20 12 -11 0 -20 5 -20 10 0 6 -6 10 -13 10 -8 0 -47 16 -88 36 -41 20 -78
37 -84 38 -5 1 -17 6 -25 11 -8 5 -22 10 -30 12 -8 1 -16 7 -18 13 -2 5 -8 8
-13 4 -5 -3 -9 -1 -9 4 0 6 -10 12 -23 16 -13 3 -60 23 -104 44 l-81 38 26 61
c15 33 33 68 41 76 7 9 14 22 15 29 2 12 44 98 80 163 9 17 16 36 16 43 0 6 5
12 10 12 6 0 10 3 9 8 -2 14 13 52 21 52 5 0 11 13 15 29 3 16 13 35 21 41 7
7 11 16 8 21 -10 17 17 9 86 -25z"/>
</g>
</svg>
